# xmcd CD database file
#
# Track frame offsets:
#	150
#	16432
#	42427
#	60127
#	74252
#	86110
#	103400
#	122602
#	144127
#	157642
#	178132
#	191112
#
# Disc length: 2973 seconds
#
# Revision: 0
# Processed by: cddbd v1.5.2PL0 Copyright (c) Steve Scherf et al.
# Submitted via: CDex 1.51
#
DISCID=9d0b9b0c
DTITLE=Pekka Leimu Swingtet - Swing Time
DYEAR=2001
DGENRE=Jazz
TTITLE0=Whispering
TTITLE1=Poor Butterfly
TTITLE2=Sweet Georgia Brown
TTITLE3=Swedish Pastry
TTITLE4=I've Got My Love To Keep Me Warm
TTITLE5=In A Mellow Tone
TTITLE6=Route 66
TTITLE7=The Man I Love
TTITLE8=Eric's Tune
TTITLE9=All The Things You Are
TTITLE10=OH, Lady Be Good!
TTITLE11=Deep Purple
EXTD=YEAR: 2001
EXTT0=
EXTT1=
EXTT2=
EXTT3=
EXTT4=
EXTT5=
EXTT6=
EXTT7=
EXTT8=
EXTT9=
EXTT10=
EXTT11=
PLAYORDER=
